# xmcd
#
# Track frame offsets: 
#        150
#        23463
#        45187
#        64246
#        81674
#        100996
#        119591
#        143006
#        159388
#        174928
#        197803
#
# Disc length: 2864 seconds
#
# Revision: 3
# Processed by: cddbd v1.5.2PL0 Copyright (c) Steve Scherf et al.
# Submitted via: ExactAudioCopy v0.99pb5
#
DISCID=8b0b2e0b
DTITLE=Jeffrey Foucault - Ghost Repeater
DYEAR=2006
DGENRE=Folk
TTITLE0=Ghost Repeater
TTITLE1=Americans in Corduroys
TTITLE2=I Dream an Old Lover
TTITLE3=One for Sorrow
TTITLE4=Train to Jackson
TTITLE5=One Part Love
TTITLE6=Wild Waste and Welter
TTITLE7=City Flower
TTITLE8=Tall Grass in Old Virginny
TTITLE9=Mesa, Arizona
TTITLE10=Appeline
EXTD=
EXTT0=
EXTT1=
EXTT2=
EXTT3=
EXTT4=
EXTT5=
EXTT6=
EXTT7=
EXTT8=
EXTT9=
EXTT10=
PLAYORDER=
